<svg xmlns="http://www.w3.org/2000/svg" width="24" height="24" viewBox="0 0 24 24" fill="none" stroke="currentColor" stroke-width="2" stroke-linecap="round" stroke-linejoin="round" class="lucide lucide-palette">
  <circle cx="13.5" cy="6.5" r=".5" fill="currentColor" />
  <circle cx="17.5" cy="10.5" r=".5" fill="currentColor" />
  <circle cx="8.5" cy="7.5" r=".5" fill="currentColor" />
  <circle cx="6.5" cy="12.5" r=".5" fill="currentColor" />
  <path d="M12 2C6.5 2 2 6.5 2 12s4.5 10 10 10c.92 0 1.63-.77 1.63-1.7 0-.43-.17-.83-.44-1.15a.46.46 0 0 1-.1-.31c0-.26.21-.47.47-.47h1.49c5.22 0 9.45-4.23 9.45-9.45C24 6.5 18.62 2 12 2Z" />
</svg>
